<?xml version="1.0" encoding="utf-8"?>
<svg version="1.0" width="1200pt" height="1200pt" viewBox="0 0 1200 1200" preserveAspectRatio="xMidYMid meet" xmlns="http://www.w3.org/2000/svg">
  <g transform="matrix(1, 0, 0, 1, -32.50658, -0.999969)">
    <g transform="matrix(0.1, 0, 0, -0.1, -38.70414, 1210.905151)" fill="#000000" stroke="none">
      <path d="M 7355 12005 C 7107 11951 6930 11768 6860 11495 C 6803 11276 6836 10854 6939 10451 C 6966 10349 7010 10177 7038 10070 C 7093 9856 7114 9742 7130 9575 C 7175 9082 7070 8683 6837 8463 C 6660 8296 6439 8229 6129 8251 C 5841 8271 5634 8359 5449 8540 C 5257 8729 5251.665 9459.269 5058.665 10015.269 C 5011.665 10150.269 4952.665 10308.269 4926.665 10366.269 C 4779.665 10696.269 4590.665 10846.269 4323.665 10846.269 C 4214.665 10846.269 4158.665 10827.269 4092.665 10766.269 C 3991.665 10673.269 3949.665 10552.269 3959.665 10381.269 C 3970.665 10192.269 4029.665 10033.269 4148.665 9876.269 C 4231.665 9767.269 4388.493 9548.25 4622.493 9357.25 C 4983.493 9061.25 4929 8497 4930 8265 C 4930 8093 4891 7990 4783 7884 C 4682 7783 4518 7710 4297 7665 C 4138 7634 3963 7615 3650 7595 C 3060 7558 3061.184 7502.607 2970.184 7390.607 C 2942.184 7355.607 2940.184 7346.607 2940.184 7271.607 C 2940.184 7170.607 3023 6900 3260 6745 C 3503 6586 3596 6516 3690 6421 C 3778 6332 3835 6250 3869 6160 C 3893 6100 3895 6083 3894 5945 C 3893 5813 3890 5784 3866 5707 C 3743 5297 2992.59 5721.141 2266.59 5619.141 C 2206.59 5610.141 2046.59 5592.141 1911.59 5578.141 C 1776.59 5564.141 1612.59 5545.141 1546.59 5537.141 C 1087.59 5480.141 1082.239 4946.142 990.239 4771.142 C 964.239 4722.142 962.239 4708.142 962.239 4612.142 C 962.239 4522.142 965.239 4501.142 985.239 4465.142 C 1033.239 4374.142 1111.239 4321.142 1254.239 4280.142 C 1321.239 4261.142 1356.239 4257.142 1492.239 4258.142 C 1715.239 4258.142 1797.239 4281.142 2236.239 4468.142 C 2543.239 4600.142 2711.239 4662.142 2857.239 4701.142 C 3067.239 4756.142 3144.239 4766.142 3362.239 4766.142 C 3536.239 4766.142 3574.239 4764.142 3651.239 4744.142 C 3905.239 4680.142 4279 4371 4376 4175 C 4436 4051 4453 3968 4453 3790 C 4452 3547 4411 3360 4311 3155 C 4147 2818 4137.246 2681.582 3482.246 2214.582 C 2980.246 1857.582 2727.843 1735.306 2587.843 1451.306 C 2483.843 1240.306 2441.843 1044.306 2449.843 806.306 C 2452.843 685.306 2458.843 648.306 2480.843 579.306 C 2542.843 389.306 2686.843 255.306 2888.843 200.306 C 2965.843 179.306 3136.843 171.306 3238.843 185.306 C 3661.843 242.306 3776 306 4015 795 C 4120 1011 4177 1162 4364 1730 C 4534 2246 4626 2494 4720 2680 C 5014 3268 5380 3534 5925 3557 C 6158 3567 6385 3527 6558 3445 C 6883 3291 7226.162 3144.346 7345.162 2677.346 C 7396.162 2477.346 7535.774 2347.435 7583.774 1910.435 C 7641.774 1386.435 7680.774 1187.435 7755.774 1035.435 C 7813.774 917.435 7884.774 846.435 7981.774 809.435 C 8032.774 790.435 8052.774 788.435 8168.774 793.435 C 8271.774 797.435 8314.774 803.435 8378.774 823.435 C 8590.774 892.435 8731.774 1041.435 8768.774 1236.435 C 8787.774 1331.435 8787.774 1377.435 8768.774 1464.435 C 8746.774 1567.435 8696.774 1657.435 8554.774 1849.435 C 8483.774 1945.435 8402.774 2062.435 8374.774 2108.435 C 8232.774 2346.435 7963.447 2601.636 7986.447 2966.636 C 8006.447 3282.636 8012 3295 8110 3495 C 8204 3689 8111.008 3792.101 8194.617 4076.963 C 8236.937 4221.15 8388.718 4591.074 8596.718 4597.074 C 9005.718 4610.074 9520.718 4548.074 9860.718 4445.074 C 10264.718 4322.074 10493.718 4191.074 10986.718 3799.074 C 11346.718 3513.074 11572.718 3420.074 11905.718 3420.074 C 11992.718 3420.074 12050.718 3425.074 12087.718 3436.074 C 12266.718 3489.074 12390.718 3622.074 12443.718 3820.074 C 12468.718 3910.074 12467.718 4129.074 12442.718 4219.074 C 12374.718 4467.074 12187.718 4630.074 11846.718 4738.074 C 11698.718 4785.074 11544.718 4816.074 11101.718 4890.074 C 10502.718 4990.074 10251.718 5054.074 10007.718 5171.074 C 9738.718 5299.074 9529.718 5494.074 9413.718 5725.074 C 9211.718 6129.074 9540 6154 9736 6578 C 9821 6763 9983 6954 10166 7086 C 10271 7162 10530 7292 10685 7349 C 10746 7371 10927 7429 11088 7479 C 11483 7602 11604 7652 11719 7738 C 11787 7789 11824 7834 11858 7907 C 11883 7960 11885 7975 11884 8080 C 11883 8217 11866 8291 11807 8405 C 11686 8637 11435 8761 11115 8748 C 10985 8742 10898 8713 10779 8634 C 10673 8565 10489 8375 10304 8145 C 10106 7900 10014 7796 9924 7718 C 9706 7530 9587 7500 9175 7531 C 8416 7587 8026 7841 7840 8399 C 7765 8622 7730 8890 7730 9230 C 7730 9613 7768 9776 7955 10195 C 8134 10597 8183 10808 8184 11185 C 8185 11343 8182 11375 8162 11448 C 8116 11618 8047 11734 7926 11847 C 7771 11991 7560 12050 7355 12005 Z"/>
      <path d="M 1960.034 9680.213 C 1861.034 9667.213 1722.034 9626.213 1651.034 9588.213 C 1533.034 9526.213 1448.034 9415.213 1425.034 9292.213 C 1392.034 9119.213 1436.034 8974.213 1561.034 8841.213 C 1664.034 8732.213 1792.034 8660.213 1980.034 8605.213 C 2121.034 8564.213 2239.034 8549.213 2460.034 8544.213 C 2772.034 8537.213 2980.034 8568.213 3150.034 8650.213 C 3245.034 8696.213 3305.034 8745.213 3343.034 8809.213 C 3366.034 8849.213 3370.034 8867.213 3370.034 8927.213 C 3369.034 8989.213 3364.034 9009.213 3333.034 9072.213 C 3212.034 9315.213 2861.034 9555.213 2480.034 9656.213 C 2394.034 9679.213 2356.034 9683.213 2205.034 9686.213 C 2109.034 9688.213 1999.034 9685.213 1960.034 9680.213 Z"/>
      <path d="M 10054.276 2707.498 C 9844.276 2670.498 9737.826 2574.102 9621.826 2429.102 C 9518.826 2301.102 9551.609 2132.364 9551.609 1951.364 C 9552.609 1849.364 9556.609 1819.364 9578.609 1751.364 C 9614.609 1641.364 9667.609 1555.364 9750.609 1472.364 C 9832.609 1389.364 9918.609 1336.364 10030.609 1299.364 C 10100.609 1276.364 10126.609 1272.364 10240.609 1272.364 C 10354.609 1272.364 10380.609 1276.364 10450.609 1299.364 C 10561.609 1336.364 10648.609 1389.364 10730.609 1471.364 C 10812.609 1553.364 10865.609 1640.364 10902.609 1751.364 C 10924.609 1819.364 10929.609 1849.364 10929.609 1951.364 C 10929.609 2036.364 10924.609 2090.364 10912.609 2136.364 C 10845.609 2380.364 10653.609 2570.364 10413.609 2630.364 C 10345.609 2647.364 10098.276 2715.498 10054.276 2707.498 Z"/>
      <path d="M 9413.558 10333.061 C 9317.558 10335.061 9112.914 10239.983 9041.914 10201.983 C 8923.914 10139.983 8838.914 10028.983 8815.914 9905.983 C 8782.914 9732.983 9000.558 9307.061 9188.558 9252.061 C 9329.558 9211.061 9447.558 9196.061 9668.558 9191.061 C 9980.558 9184.061 10076.497 9278.723 10114.497 9342.723 C 10137.497 9382.723 10235.896 9597.327 10235.896 9657.327 C 10234.896 9719.327 10218.799 9930.92 10187.799 9993.92 C 10066.799 10236.92 10069.558 10202.061 9688.558 10303.061 C 9602.558 10326.061 9564.558 10330.061 9413.558 10333.061 Z" transform="matrix(0, -1, 1, 0, -161.121582, 19362.668457)"/>
      <path style="fill: rgb(216, 216, 216); stroke: rgb(0, 0, 0);" d="M 9588.746 3263.22 L 9588.746 3263.22"/>
    </g>
    <path d="M 436.293 690.29 C 435.913 690.29 435.28 689.5 434.393 687.92 C 433.506 686.333 431.414 688.372 430.087 688.372 C 428.754 688.372 428.283 686.553 426.703 688.58 C 425.116 690.607 423.88 691.62 422.993 691.62 C 414.506 691.62 406.906 690.957 400.193 689.63 C 393.48 688.297 388.92 686.933 386.513 685.54 L 382.713 683.45 C 381.953 682.69 381.1 678.73 380.153 671.57 C 379.2 664.417 378.121 662.209 378.121 656.382 C 378.121 655.495 381.256 649.123 386.323 645.83 L 388.793 644.12 C 390.06 643.233 393.226 642.41 398.293 641.65 C 398.42 641.65 398.483 642.157 398.483 643.17 L 398.293 647.35 L 403.233 659.51 C 403.866 659.89 406.113 660.743 409.973 662.07 C 413.84 663.403 416.723 664.07 418.623 664.07 C 422.043 664.07 425.496 662.01 428.983 657.89 C 432.463 653.777 434.203 650.897 434.203 649.25 C 434.203 646.337 432.493 642.537 429.073 637.85 L 427.363 635.38 C 418.116 629.553 412.543 626.64 410.643 626.64 C 408.363 627.273 406.873 627.59 406.173 627.59 C 405.48 627.59 404.533 626.83 403.333 625.31 C 402.126 623.79 401.523 622.777 401.523 622.27 L 402.853 616.57 C 402.853 615.557 401.523 614.67 398.863 613.91 L 393.543 614.86 C 392.15 614.86 389.016 611.693 384.143 605.36 C 379.263 599.027 378.823 595.297 378.823 594.03 C 378.823 592.763 377.68 589.527 379.393 584.46 C 381.1 579.393 381.86 573.171 385.407 566.138 C 388.954 559.111 391.082 554.579 395.009 550.652 C 397.669 548.879 401.081 543.992 407.601 542.599 C 414.128 541.206 425.716 543.04 433.063 543.04 C 435.216 546.46 437.215 547.981 440.382 547.981 C 443.169 546.714 445.223 544.687 445.223 541.52 C 445.223 541.14 447.313 540.95 451.493 540.95 C 459.853 540.95 464.063 542.027 464.123 544.18 C 464.19 546.333 464.223 549.247 464.223 552.92 C 464.223 556.593 464.096 559.443 463.843 561.47 C 465.236 567.55 465.933 571.16 465.933 572.3 L 465.933 572.49 C 465.173 574.01 463.083 575.877 459.663 578.09 C 456.243 580.31 454.12 581.42 453.293 581.42 C 452.473 581.42 452.063 581.23 452.063 580.85 C 452.063 578.57 449.626 575.5 444.753 571.64 C 439.873 567.773 435.406 565.84 431.353 565.84 C 428.946 565.84 425.78 567.897 421.853 572.01 C 417.926 576.13 415.963 579.583 415.963 582.37 C 416.596 585.537 417.926 587.12 419.953 587.12 C 421.093 587.12 422.423 586.423 423.943 585.03 L 424.133 585.03 C 425.273 585.03 429.04 587.213 435.433 591.58 C 441.833 595.953 445.223 598.71 445.603 599.85 C 447.123 599.597 448.423 599.47 449.503 599.47 C 450.576 599.47 451.366 599.597 451.873 599.85 C 454.913 602.257 458.08 605.52 461.373 609.64 C 464.666 613.753 466.566 616.443 467.073 617.71 C 469.986 624.423 471.443 635.253 471.443 650.2 C 471.443 654.76 466.596 662.583 456.903 673.67 C 447.216 684.75 440.346 690.29 436.293 690.29 Z M 532.998 615.62 L 530.718 612.01 C 530.718 611.883 530.878 611.66 531.198 611.34 C 531.511 611.027 531.888 610.427 532.328 609.54 C 532.775 608.653 533.251 607.513 533.758 606.12 C 534.898 602.953 535.468 597.887 535.468 590.92 C 535.468 590.793 534.645 590.063 532.998 588.73 C 531.351 587.403 530.528 586.423 530.528 585.79 C 530.528 584.65 531.605 581.673 533.758 576.86 L 534.898 574.58 C 534.898 573.06 534.138 571.603 532.618 570.21 C 531.098 568.817 529.578 567.803 528.058 567.17 L 525.968 566.22 C 520.648 570.653 517.988 573.947 517.988 576.1 L 519.128 588.64 C 516.721 590.793 517.865 591.203 517.865 592.216 C 517.865 593.229 517.621 593.916 517.874 594.169 C 519.774 595.942 518.748 598.363 518.748 599.19 C 518.748 600.01 518.591 600.577 518.278 600.89 C 517.958 601.21 517.798 602.257 517.798 604.03 L 517.988 612.39 C 517.988 615.177 517.798 616.95 517.418 617.71 C 519.318 619.863 520.998 620.94 522.458 620.94 C 523.911 620.94 526.031 620.307 528.818 619.04 C 531.605 617.773 532.998 616.633 532.998 615.62 Z M 570.998 588.83 L 570.428 601.18 C 570.428 603.333 570.618 605.043 570.998 606.31 L 570.998 606.88 C 570.998 609.413 568.465 614.13 563.398 621.03 C 558.331 627.937 555.071 631.39 553.618 631.39 C 552.158 631.39 549.178 633.067 544.678 636.42 C 540.185 639.78 537.938 641.967 537.938 642.98 C 537.938 643.74 534.551 644.657 527.778 645.73 C 520.998 646.81 517.608 647.477 517.608 647.73 C 517.608 660.27 518.621 670.277 520.648 677.75 L 521.598 681.36 C 521.598 682.247 519.668 683.61 515.808 685.45 C 511.941 687.283 509.691 688.517 509.058 689.15 C 507.665 690.543 504.688 691.62 500.128 692.38 C 497.848 692.38 493.415 691.557 486.828 689.91 C 480.241 688.263 476.948 686.807 476.948 685.54 C 478.341 682.627 479.545 675.723 480.558 664.83 L 480.938 659.13 C 480.938 659.003 481.191 658.75 481.698 658.37 C 483.471 657.483 484.358 656.123 484.358 654.29 C 484.358 652.45 483.251 650.8 481.038 649.34 C 478.818 647.887 477.708 647.033 477.708 646.78 C 477.708 645.26 478.595 642.917 480.368 639.75 L 481.318 638.04 L 481.698 624.93 C 481.698 620.623 481.508 618.28 481.128 617.9 C 480.748 617.52 480.558 617.077 480.558 616.57 L 482.838 607.07 C 483.091 605.297 483.218 603.27 483.218 600.99 C 483.218 594.403 482.458 586.17 480.938 576.29 L 479.988 570.97 L 482.648 566.6 C 482.648 564.32 481.001 559.823 477.708 553.11 L 475.998 549.5 C 483.091 543.293 489.615 540.19 495.568 540.19 C 503.801 541.077 508.171 541.837 508.678 542.47 C 509.945 543.863 511.275 546.903 512.668 551.59 L 513.428 554.06 C 514.315 554.693 515.011 555.01 515.518 555.01 C 516.025 555.01 516.341 554.883 516.468 554.63 C 520.141 549.437 522.421 545.637 523.308 543.23 C 530.528 542.85 535.785 542.66 539.078 542.66 L 541.168 542.85 L 541.548 542.85 C 543.195 543.103 545.855 543.833 549.528 545.04 C 553.201 546.24 555.418 547.22 556.178 547.98 C 560.105 551.907 563.905 558.05 567.578 566.41 C 568.845 569.197 569.668 570.717 570.048 570.97 L 570.048 571.16 C 570.048 571.54 569.068 572.837 567.108 575.05 C 565.141 577.27 564.158 578.697 564.158 579.33 L 564.158 579.52 C 564.158 580.787 564.665 581.833 565.678 582.66 C 566.691 583.48 567.895 583.89 569.288 583.89 C 570.428 583.89 570.998 585.537 570.998 588.83 Z M 665.043 663.12 L 665.613 666.73 C 665.613 668.503 664.57 671.763 662.483 676.51 C 660.39 681.263 659.153 683.893 658.773 684.4 C 657.38 685.667 654.15 686.3 649.083 686.3 C 639.457 686.3 630.653 685.793 622.673 684.78 L 618.303 684.21 C 616.15 684.21 614.313 684.937 612.793 686.39 C 611.273 687.85 608.993 688.58 605.953 688.58 L 588.853 687.44 C 582.52 687.44 579.353 686.68 579.353 685.16 L 579.353 684.78 C 579.987 682.627 580.303 679.207 580.303 674.52 L 579.353 658.56 L 579.353 658.37 C 579.353 657.737 580.557 656.533 582.963 654.76 C 585.37 652.987 586.573 651.403 586.573 650.01 C 586.573 648.617 586.003 647.287 584.863 646.02 C 583.723 644.753 581.95 643.74 579.543 642.98 C 579.29 642.22 579.163 641.46 579.163 640.7 L 580.303 633.1 C 580.557 631.327 580.683 629.68 580.683 628.16 L 578.973 597.76 C 578.973 597.38 579.48 596.81 580.493 596.05 C 582.393 594.657 583.343 593.453 583.343 592.44 L 582.393 588.26 C 581.633 587.5 580.683 586.867 579.543 586.36 C 577.643 585.727 576.693 585.06 576.693 584.36 C 576.693 583.667 577.423 581.547 578.883 578 C 580.337 574.453 581.063 572.237 581.063 571.35 L 577.833 554.63 C 577.833 553.617 580.557 551.113 586.003 547.12 C 591.45 543.133 595.98 541.14 599.593 541.14 C 603.2 541.14 607.82 541.583 613.453 542.47 C 619.093 543.357 621.913 544.243 621.913 545.13 C 621.913 546.65 621.437 550.673 620.483 557.2 C 619.537 563.72 618.747 567.17 618.113 567.55 C 615.073 569.07 613.553 570.683 613.553 572.39 C 613.553 574.103 614.537 575.817 616.503 577.53 C 618.463 579.237 619.443 580.343 619.443 580.85 L 619.443 581.04 C 618.43 595.1 617.923 604.757 617.923 610.01 C 617.923 615.27 618.017 618.313 618.203 619.14 C 618.397 619.96 619.033 620.94 620.113 622.08 C 621.187 623.22 621.06 626.67 619.733 628.63 C 618.4 630.597 617.733 632.403 617.733 634.05 C 618.113 637.977 618.303 641.047 618.303 643.26 C 618.303 645.48 618.177 646.717 617.923 646.97 C 613.49 651.403 611.273 655.203 611.273 658.37 C 611.273 659.003 611.59 659.89 612.223 661.03 C 612.857 662.17 613.397 662.74 613.843 662.74 C 614.283 662.74 615.707 661.82 618.113 659.98 C 620.52 658.147 622.357 657.23 623.623 657.23 L 624.193 657.23 C 628.5 658.117 632.553 658.56 636.353 658.56 C 640.153 658.56 642.623 657.99 643.763 656.85 C 648.07 652.543 651.49 647.477 654.023 641.65 C 654.657 640.13 662.353 640.89 665.333 643.93 C 668.307 646.97 669.793 649.503 669.793 651.53 C 669.033 655.457 668.05 658.147 666.843 659.6 C 665.643 661.06 665.043 662.233 665.043 663.12 Z M 729.639 612.77 C 729.512 612.517 729.449 612.327 729.449 612.2 C 727.802 607.007 726.979 598.9 726.979 587.88 L 726.979 587.12 C 726.979 584.46 726.409 583.13 725.269 583.13 C 720.202 583.13 717.669 584.587 717.669 587.5 L 718.429 596.24 C 718.429 597 717.605 599.407 715.959 603.46 C 714.312 607.513 713.489 610.743 713.489 613.15 C 713.489 615.557 713.805 616.76 714.439 616.76 C 715.579 616.76 717.289 616.35 719.569 615.53 C 721.849 614.703 724.099 614.29 726.319 614.29 C 728.532 614.29 729.639 613.783 729.639 612.77 Z M 693.539 572.49 L 693.474 561.342 C 693.474 560.202 695.915 557.13 705.609 551.87 C 715.295 546.617 721.025 543.8 722.799 543.42 C 724.572 543.04 727.802 542.85 732.489 542.85 C 737.175 542.85 741.545 543.293 745.599 544.18 C 754.212 546.08 758.519 547.917 758.519 549.69 C 758.519 549.817 758.202 551.463 757.569 554.63 C 755.542 564.51 754.529 572.363 754.529 578.19 C 754.529 578.823 755.162 579.297 756.429 579.61 C 757.695 579.93 758.329 580.153 758.329 580.28 C 758.329 584.333 759.562 596.59 762.029 617.05 C 764.502 637.503 766.625 650.39 768.399 655.71 L 768.399 655.9 C 768.399 656.153 767.415 656.977 765.449 658.37 C 763.489 659.763 762.509 661.283 762.509 662.93 C 762.509 664.577 763.489 665.717 765.449 666.35 C 767.415 666.983 769.349 667.457 771.249 667.77 C 773.149 668.09 774.099 668.757 774.099 669.77 C 773.972 670.023 773.909 670.467 773.909 671.1 C 773.909 671.733 774.099 672.873 774.479 674.52 C 774.859 677.053 776.379 680.41 779.039 684.59 L 780.179 686.49 C 780.179 688.643 776.602 690.957 769.449 693.43 C 762.289 695.897 756.965 697.13 753.479 697.13 C 749.999 697.13 746.582 696.467 743.229 695.14 C 739.869 693.807 737.145 692.38 735.059 690.86 C 732.965 689.34 731.919 688.263 731.919 687.63 C 731.919 687.503 732.045 686.807 732.299 685.54 C 732.932 682.373 733.249 678.953 733.249 675.28 L 729.069 649.25 C 729.069 648.743 730.209 648.3 732.489 647.92 C 734.769 647.54 735.909 646.717 735.909 645.45 C 735.909 643.803 734.959 642.41 733.059 641.27 C 731.159 640.13 728.845 639.56 726.119 639.56 C 723.399 639.56 720.172 640.257 716.439 641.65 C 712.699 643.043 710.545 644.343 709.979 645.55 C 709.405 646.75 708.485 652.387 707.219 662.46 C 705.952 672.527 705.319 680.03 705.319 684.97 C 705.319 685.983 701.962 687.377 695.249 689.15 C 688.535 690.923 682.962 691.81 678.529 691.81 C 676.249 691.81 672.512 690.163 667.319 686.87 L 664.849 685.35 C 664.469 684.97 664.279 684.4 664.279 683.64 L 664.279 683.26 C 666.179 680.853 668.459 675.723 671.119 667.87 L 672.639 663.69 C 674.285 663.69 676.215 662.71 678.429 660.75 C 680.649 658.783 681.759 657.39 681.759 656.57 C 681.759 655.743 681.062 654.413 679.669 652.58 C 678.275 650.74 677.579 649.63 677.579 649.25 L 677.579 649.06 L 684.609 631.58 C 684.609 628.793 686.099 618.977 689.079 602.13 C 692.052 585.283 693.539 575.403 693.539 572.49 Z M 840.404 545.51 L 863.394 543.99 C 864.407 543.99 864.977 544.053 865.104 544.18 C 865.864 544.94 867.224 549.657 869.184 558.33 C 871.15 567.01 872.134 573.82 872.134 578.76 C 872.134 579.773 870.267 581.577 866.534 584.17 C 862.794 586.77 859.72 588.07 857.314 588.07 C 857.06 588.07 856.617 587.057 855.984 585.03 C 853.83 578.063 850.98 572.807 847.434 569.26 C 842.874 567.613 839.517 566.79 837.364 566.79 C 835.21 566.79 833.91 566.887 833.464 567.08 C 833.024 567.267 832.39 567.74 831.564 568.5 C 830.744 569.26 832.144 570.527 832.144 571.794 C 837.97 574.454 839.074 575.973 839.074 576.86 C 838.44 585.093 838.124 593.2 838.124 601.18 C 835.084 603.713 833.564 605.36 833.564 606.12 C 833.564 607.767 834.07 609.097 835.084 610.11 C 836.097 611.123 837.11 611.82 838.124 612.2 C 839.137 612.58 839.644 612.833 839.644 612.96 C 838.884 626.64 838.504 638.073 838.504 647.26 C 838.504 656.44 838.757 662.55 839.264 665.59 C 842.177 672.81 843.634 678.003 843.634 681.17 C 843.634 682.183 842.147 683.387 839.174 684.78 C 836.194 686.173 833.754 687.123 831.854 687.63 C 828.687 688.39 825.9 689.973 823.494 692.38 C 816.654 692.38 810.987 692.063 806.494 691.43 C 801.994 690.797 799.174 690.163 798.034 689.53 L 796.514 688.58 L 799.744 676.99 C 799.997 676.61 800.124 674.647 800.124 671.1 L 799.934 656.66 C 799.934 654.633 799.997 653.62 800.124 653.62 C 801.644 653.62 803.164 651.973 804.684 648.68 C 804.684 648.047 803.577 646.59 801.364 644.31 C 799.144 642.03 798.034 640.637 798.034 640.13 L 800.884 634.62 C 801.137 633.607 801.264 632.213 801.264 630.44 L 800.694 612.77 C 800.694 610.49 800.884 609.16 801.264 608.78 C 801.644 608.4 801.834 607.927 801.834 607.36 C 801.834 606.787 801.137 605.77 799.744 604.31 C 798.35 602.857 797.654 601.56 797.654 600.42 L 800.694 593.58 C 801.2 592.06 801.454 587.183 801.454 578.95 C 801.454 570.717 800.309 571.028 800.056 571.028 C 796.509 571.028 794.17 568.593 791.004 572.58 C 787.837 576.573 785.557 580.597 784.164 584.65 L 782.074 590.73 C 779.54 590.73 776.944 590.033 774.284 588.64 C 771.624 587.247 769.597 585.82 768.204 584.36 C 766.81 582.907 766.114 581.833 766.114 581.14 C 766.114 580.44 767.414 574.107 770.014 562.14 C 772.607 550.167 774.22 544.117 774.854 543.99 C 780.807 544.623 784.607 545.193 786.254 545.7 C 802.087 544.18 811.08 543.42 813.234 543.42 L 821.594 544.37 C 826.66 542.343 829.51 541.33 830.144 541.33 C 832.17 542.217 833.69 543.133 834.704 544.08 C 835.717 545.033 837.617 545.51 840.404 545.51 Z" style="fill: rgb(255, 255, 255); white-space: pre;" transform="matrix(0.990268, -0.139173, 0.139173, 0.990268, -80.017087, 93.021625)"/>
    <path style="fill: rgb(216, 216, 216); stroke: rgb(0, 0, 0);"/>
  </g>
</svg>