<?xml version="1.0" encoding="utf-8"?>
<svg version="1.0" width="1200pt" height="1200pt" viewBox="0 0 1200 1200" preserveAspectRatio="xMidYMid meet" xmlns="http://www.w3.org/2000/svg">
  <g transform="matrix(1, 0, 0, 1, -32.50658, -0.999969)">
    <g transform="matrix(0.1, 0, 0, -0.1, -38.70414, 1210.905151)" fill="#000000" stroke="none">
      <path d="M 7355 12005 C 7107 11951 6930 11768 6860 11495 C 6803 11276 6836 10854 6939 10451 C 6966 10349 7010 10177 7038 10070 C 7093 9856 7114 9742 7130 9575 C 7175 9082 7070 8683 6837 8463 C 6660 8296 6439 8229 6129 8251 C 5841 8271 5634 8359 5449 8540 C 5257 8729 5251.665 9459.269 5058.665 10015.269 C 5011.665 10150.269 4952.665 10308.269 4926.665 10366.269 C 4779.665 10696.269 4590.665 10846.269 4323.665 10846.269 C 4214.665 10846.269 4158.665 10827.269 4092.665 10766.269 C 3991.665 10673.269 3949.665 10552.269 3959.665 10381.269 C 3970.665 10192.269 4029.665 10033.269 4148.665 9876.269 C 4231.665 9767.269 4388.493 9548.25 4622.493 9357.25 C 4983.493 9061.25 4929 8497 4930 8265 C 4930 8093 4891 7990 4783 7884 C 4682 7783 4518 7710 4297 7665 C 4138 7634 3963 7615 3650 7595 C 3060 7558 3061.184 7502.607 2970.184 7390.607 C 2942.184 7355.607 2940.184 7346.607 2940.184 7271.607 C 2940.184 7170.607 3023 6900 3260 6745 C 3503 6586 3596 6516 3690 6421 C 3778 6332 3835 6250 3869 6160 C 3893 6100 3895 6083 3894 5945 C 3893 5813 3890 5784 3866 5707 C 3743 5297 2992.59 5721.141 2266.59 5619.141 C 2206.59 5610.141 2046.59 5592.141 1911.59 5578.141 C 1776.59 5564.141 1612.59 5545.141 1546.59 5537.141 C 1087.59 5480.141 1082.239 4946.142 990.239 4771.142 C 964.239 4722.142 962.239 4708.142 962.239 4612.142 C 962.239 4522.142 965.239 4501.142 985.239 4465.142 C 1033.239 4374.142 1111.239 4321.142 1254.239 4280.142 C 1321.239 4261.142 1356.239 4257.142 1492.239 4258.142 C 1715.239 4258.142 1797.239 4281.142 2236.239 4468.142 C 2543.239 4600.142 2711.239 4662.142 2857.239 4701.142 C 3067.239 4756.142 3144.239 4766.142 3362.239 4766.142 C 3536.239 4766.142 3574.239 4764.142 3651.239 4744.142 C 3905.239 4680.142 4279 4371 4376 4175 C 4436 4051 4453 3968 4453 3790 C 4452 3547 4411 3360 4311 3155 C 4147 2818 4137.246 2681.582 3482.246 2214.582 C 2980.246 1857.582 2727.843 1735.306 2587.843 1451.306 C 2483.843 1240.306 2441.843 1044.306 2449.843 806.306 C 2452.843 685.306 2458.843 648.306 2480.843 579.306 C 2542.843 389.306 2686.843 255.306 2888.843 200.306 C 2965.843 179.306 3136.843 171.306 3238.843 185.306 C 3661.843 242.306 3776 306 4015 795 C 4120 1011 4177 1162 4364 1730 C 4534 2246 4626 2494 4720 2680 C 5014 3268 5380 3534 5925 3557 C 6158 3567 6385 3527 6558 3445 C 6883 3291 7226.162 3144.346 7345.162 2677.346 C 7396.162 2477.346 7535.774 2347.435 7583.774 1910.435 C 7641.774 1386.435 7680.774 1187.435 7755.774 1035.435 C 7813.774 917.435 7884.774 846.435 7981.774 809.435 C 8032.774 790.435 8052.774 788.435 8168.774 793.435 C 8271.774 797.435 8314.774 803.435 8378.774 823.435 C 8590.774 892.435 8731.774 1041.435 8768.774 1236.435 C 8787.774 1331.435 8787.774 1377.435 8768.774 1464.435 C 8746.774 1567.435 8696.774 1657.435 8554.774 1849.435 C 8483.774 1945.435 8402.774 2062.435 8374.774 2108.435 C 8232.774 2346.435 7963.447 2601.636 7986.447 2966.636 C 8006.447 3282.636 8012 3295 8110 3495 C 8204 3689 8111.008 3792.101 8194.617 4076.963 C 8236.937 4221.15 8388.718 4591.074 8596.718 4597.074 C 9005.718 4610.074 9520.718 4548.074 9860.718 4445.074 C 10264.718 4322.074 10493.718 4191.074 10986.718 3799.074 C 11346.718 3513.074 11572.718 3420.074 11905.718 3420.074 C 11992.718 3420.074 12050.718 3425.074 12087.718 3436.074 C 12266.718 3489.074 12390.718 3622.074 12443.718 3820.074 C 12468.718 3910.074 12467.718 4129.074 12442.718 4219.074 C 12374.718 4467.074 12187.718 4630.074 11846.718 4738.074 C 11698.718 4785.074 11544.718 4816.074 11101.718 4890.074 C 10502.718 4990.074 10251.718 5054.074 10007.718 5171.074 C 9738.718 5299.074 9529.718 5494.074 9413.718 5725.074 C 9211.718 6129.074 9540 6154 9736 6578 C 9821 6763 9983 6954 10166 7086 C 10271 7162 10530 7292 10685 7349 C 10746 7371 10927 7429 11088 7479 C 11483 7602 11604 7652 11719 7738 C 11787 7789 11824 7834 11858 7907 C 11883 7960 11885 7975 11884 8080 C 11883 8217 11866 8291 11807 8405 C 11686 8637 11435 8761 11115 8748 C 10985 8742 10898 8713 10779 8634 C 10673 8565 10489 8375 10304 8145 C 10106 7900 10014 7796 9924 7718 C 9706 7530 9587 7500 9175 7531 C 8416 7587 8026 7841 7840 8399 C 7765 8622 7730 8890 7730 9230 C 7730 9613 7768 9776 7955 10195 C 8134 10597 8183 10808 8184 11185 C 8185 11343 8182 11375 8162 11448 C 8116 11618 8047 11734 7926 11847 C 7771 11991 7560 12050 7355 12005 Z"/>
      <path d="M 1960.034 9680.213 C 1861.034 9667.213 1722.034 9626.213 1651.034 9588.213 C 1533.034 9526.213 1448.034 9415.213 1425.034 9292.213 C 1392.034 9119.213 1436.034 8974.213 1561.034 8841.213 C 1664.034 8732.213 1792.034 8660.213 1980.034 8605.213 C 2121.034 8564.213 2239.034 8549.213 2460.034 8544.213 C 2772.034 8537.213 2980.034 8568.213 3150.034 8650.213 C 3245.034 8696.213 3305.034 8745.213 3343.034 8809.213 C 3366.034 8849.213 3370.034 8867.213 3370.034 8927.213 C 3369.034 8989.213 3364.034 9009.213 3333.034 9072.213 C 3212.034 9315.213 2861.034 9555.213 2480.034 9656.213 C 2394.034 9679.213 2356.034 9683.213 2205.034 9686.213 C 2109.034 9688.213 1999.034 9685.213 1960.034 9680.213 Z"/>
      <path d="M 10054.276 2707.498 C 9844.276 2670.498 9737.826 2574.102 9621.826 2429.102 C 9518.826 2301.102 9551.609 2132.364 9551.609 1951.364 C 9552.609 1849.364 9556.609 1819.364 9578.609 1751.364 C 9614.609 1641.364 9667.609 1555.364 9750.609 1472.364 C 9832.609 1389.364 9918.609 1336.364 10030.609 1299.364 C 10100.609 1276.364 10126.609 1272.364 10240.609 1272.364 C 10354.609 1272.364 10380.609 1276.364 10450.609 1299.364 C 10561.609 1336.364 10648.609 1389.364 10730.609 1471.364 C 10812.609 1553.364 10865.609 1640.364 10902.609 1751.364 C 10924.609 1819.364 10929.609 1849.364 10929.609 1951.364 C 10929.609 2036.364 10924.609 2090.364 10912.609 2136.364 C 10845.609 2380.364 10653.609 2570.364 10413.609 2630.364 C 10345.609 2647.364 10098.276 2715.498 10054.276 2707.498 Z"/>
      <path d="M 9413.558 10333.061 C 9317.558 10335.061 9112.914 10239.983 9041.914 10201.983 C 8923.914 10139.983 8838.914 10028.983 8815.914 9905.983 C 8782.914 9732.983 9000.558 9307.061 9188.558 9252.061 C 9329.558 9211.061 9447.558 9196.061 9668.558 9191.061 C 9980.558 9184.061 10076.497 9278.723 10114.497 9342.723 C 10137.497 9382.723 10235.896 9597.327 10235.896 9657.327 C 10234.896 9719.327 10218.799 9930.92 10187.799 9993.92 C 10066.799 10236.92 10069.558 10202.061 9688.558 10303.061 C 9602.558 10326.061 9564.558 10330.061 9413.558 10333.061 Z" transform="matrix(0, -1, 1, 0, -161.121582, 19362.668457)"/>
      <path style="fill: rgb(216, 216, 216); stroke: rgb(0, 0, 0);" d="M 9588.746 3263.22 L 9588.746 3263.22"/>
    </g>
    <path style="fill: rgb(216, 216, 216); stroke: rgb(0, 0, 0);"/>
  </g>
</svg>